<?xml version="1.0" encoding="utf-8"?>
<!-- Generator: Adobe Illustrator 21.0.2, SVG Export Plug-In . SVG Version: 6.00 Build 0)  -->
<svg version="1.1" xmlns="http://www.w3.org/2000/svg" xmlns:xlink="http://www.w3.org/1999/xlink" x="0px" y="0px"
	 viewBox="0 0 720 128.9" style="enable-background:new 0 0 720 128.9;" xml:space="preserve">
<style type="text/css">
	.st0{display:none;}
	.st1{display:inline;fill:#333333;}
	.st2{filter:url(#dropshadow);}
	.st3{clip-path:url(#SVGID_4_);}
	.st4{fill:#EF4748;}
	.st5{fill:#BE3B3B;}
	.st6{fill:#E3E3E3;}
</style>
<filter  height="130%" id="dropshadow">
	<feGaussianBlur  in="SourceAlpha" stdDeviation="3"></feGaussianBlur>
	<!--  stdDeviation is how much to blur  -->
	<feOffset  dx="2" dy="2" result="offsetblur"></feOffset>
	<!--  how much to offset  -->
	<feMerge>
		<feMergeNode></feMergeNode>
		<!--  this contains the offset blurred image  -->
		<feMergeNode  in="SourceGraphic"></feMergeNode>
		<!--  this contains the element that the filter is applied to  -->
	</feMerge>
</filter>
<g id="Layer_3" class="st0">
	<rect x="-28" y="-27" class="st1" width="773" height="195"/>
</g>
<g id="Layer_2">
	<title>MXSDB</title>
	<g class="st2">
		<g>
			<defs>
				<rect id="SVGID_1_" width="720" height="128.9"/>
			</defs>
			<clipPath id="SVGID_2_">
				<use xlink:href="#SVGID_1_"  style="overflow:visible;"/>
			</clipPath>
		</g>
		<g>
			<defs>
				<rect id="SVGID_3_" width="720" height="128.9"/>
			</defs>
			<clipPath id="SVGID_4_">
				<use xlink:href="#SVGID_3_"  style="overflow:visible;"/>
			</clipPath>
			<g class="st3">
				<polygon class="st4" points="109,33.1 213.1,0.9 213.1,29.6 109,61.8 				"/>
				<polygon class="st4" points="109,66.2 213.1,33.9 213.1,62.6 109,94.8 				"/>
				<polygon class="st4" points="109,99.2 213.1,67 213.1,95.7 109,127.9 				"/>
				<polygon class="st5" points="104.2,33.1 0,0.9 0,29.6 104.2,61.8 				"/>
				<polygon class="st5" points="104.2,66.2 0,33.9 0,62.6 104.2,94.8 				"/>
				<polygon class="st5" points="104.2,99.2 0,67 0,95.7 104.2,127.9 				"/>
				<polygon class="st6" points="326.1,0 322.6,0 317.9,0 276.3,61.5 234.6,0 229.1,0 226.4,0 218.9,0 218.9,128.8 237.8,128.8 
					237.8,39.3 270.3,88.1 276.3,88.1 282.3,88.1 314.6,39.5 314.6,128.8 333.5,128.8 333.5,0 				"/>
				<polygon class="st6" points="401.7,64.4 446.7,0 424.2,0 389.9,47.3 355.5,0 333,0 378.1,64.4 332.4,128.8 355.3,128.8 
					389.9,81.8 424.5,128.8 447.3,128.8 				"/>
				<path class="st6" d="M515.1,33.9c-2.6-11.4-15.1-16.3-26.4-16.1c-8.7,0.2-18.3,3.1-23.5,9.6c-2.5,3.3-3.6,7.5-3.1,11.7
					c0.9,13,15.5,14.6,29.4,15.9c17.7,2.2,39.7,6.7,44.7,26.9c0.6,2.7,0.9,5.5,0.9,8.3c0,24.4-24.7,38.5-48,38.5
					c-19.9,0-44.1-11.6-46.5-34.1l-0.2-3.4l18.8-0.4l0.2,2.7v-0.7c1.3,11.7,15.9,17.9,27.9,17.9c13.8,0,29-7.6,29-20.6
					c0-1.5-0.2-2.9-0.6-4.3c-2.2-9.6-15.5-11.2-28.4-12.5c-20.1-2-43.8-6.3-45.8-32.7v0.2c-0.8-8.6,1.7-17.2,7-24
					C459.2,5.8,474.7,0,489.6,0c20,0,40.6,10.1,44,33.2L515.1,33.9z"/>
				<path class="st4" d="M556.1,0h-38.7c1.4,0.8,2.8,1.6,4.2,2.5c6.1,4,11.1,9.6,14.4,16.1h20.2c30.3,0,45.6,23,45.6,45.9
					s-15.3,45.7-45.6,45.7h-17.6c-4.6,8-11.9,14.3-20.6,18.6h38.2c42.8,0,64.2-32.1,64.2-64.3S598.8,0,556.1,0z"/>
				<path class="st4" d="M678.3,0c16.1,0,26.3,9.2,31.1,21.2c5.1,12.7,3.5,27.5-9.3,36.7C714.7,64.2,720,77.8,720,90
					c0,19.4-12.6,38.9-37.1,38.9h-57.8V0H678.3z M643.4,51.2h34.5c20.1,0,20.5-33.5,0.4-33.5h-34.9L643.4,51.2z M643.4,110.7h39.5
					c12.4,0,18.7-10.5,18.7-20.6s-6.2-20.5-18.7-20.5h-39.5L643.4,110.7z"/>
			</g>
		</g>
		<g>
			<defs>
				<rect id="SVGID_5_" width="720" height="128.9"/>
			</defs>
			<clipPath id="SVGID_6_">
				<use xlink:href="#SVGID_5_"  style="overflow:visible;"/>
			</clipPath>
		</g>
	</g>
</g>
</svg>
